<svg width="56" height="56" viewBox="0 0 56 56" fill="none" xmlns="http://www.w3.org/2000/svg">
<g clip-path="url(#clip0_913_19)">
<path d="M25.9916 36.7416L38.6228 24.1103L36.1145 21.602L25.9916 31.7249L20.8853 26.6187L18.377 29.127L25.9916 36.7416ZM28.4999 46.4166C26.0214 46.4166 23.6923 45.946 21.5124 45.0047C19.3326 44.0647 17.4364 42.7885 15.8239 41.176C14.2114 39.5635 12.9351 37.6673 11.9951 35.4874C11.0539 33.3076 10.5833 30.9784 10.5833 28.4999C10.5833 26.0214 11.0539 23.6923 11.9951 21.5124C12.9351 19.3326 14.2114 17.4364 15.8239 15.8239C17.4364 14.2114 19.3326 12.9345 21.5124 11.9933C23.6923 11.0533 26.0214 10.5833 28.4999 10.5833C30.9784 10.5833 33.3076 11.0533 35.4874 11.9933C37.6673 12.9345 39.5635 14.2114 41.176 15.8239C42.7885 17.4364 44.0647 19.3326 45.0047 21.5124C45.946 23.6923 46.4166 26.0214 46.4166 28.4999C46.4166 30.9784 45.946 33.3076 45.0047 35.4874C44.0647 37.6673 42.7885 39.5635 41.176 41.176C39.5635 42.7885 37.6673 44.0647 35.4874 45.0047C33.3076 45.946 30.9784 46.4166 28.4999 46.4166ZM28.4999 42.8333C32.5013 42.8333 35.8905 41.4447 38.6676 38.6676C41.4447 35.8905 42.8333 32.5013 42.8333 28.4999C42.8333 24.4985 41.4447 21.1093 38.6676 18.3322C35.8905 15.5551 32.5013 14.1666 28.4999 14.1666C24.4985 14.1666 21.1093 15.5551 18.3322 18.3322C15.5551 21.1093 14.1666 24.4985 14.1666 28.4999C14.1666 32.5013 15.5551 35.8905 18.3322 38.6676C21.1093 41.4447 24.4985 42.8333 28.4999 42.8333Z" fill="#05FF00" fill-opacity="0.9"/>
</g>
<defs>
<clipPath id="clip0_913_19">
<rect width="56" height="56" fill="white"/>
</clipPath>
</defs>
</svg>
