<svg width="56" height="56" viewBox="0 0 56 56" fill="none" xmlns="http://www.w3.org/2000/svg">
<g clip-path="url(#clip0_913_19)">
<rect width="56" height="56" fill="white"/>
<rect x="-0.00195312" y="-0.123535" width="56.2449" height="56.1188" transform="rotate(0.12857 -0.00195312 -0.123535)" fill="white"/>
<path d="M46.8108 43.6275C49.324 40.6037 51.0719 37.0191 51.9068 33.1769C52.7416 29.3346 52.6388 25.3478 51.6069 21.5538C50.5751 17.7597 48.6447 14.2699 45.9789 11.3797C43.3131 8.48951 39.9905 6.28386 36.292 4.94937C32.5935 3.61487 28.628 3.19078 24.7309 3.71298C20.8339 4.23518 17.1199 5.68831 13.9033 7.94943C10.6866 10.2105 8.06181 13.2131 6.25099 16.7032C4.44017 20.1933 3.49657 24.0682 3.50001 28C3.50133 33.7159 5.51556 39.2487 9.18926 43.6275L9.15426 43.6573C9.27676 43.8043 9.41676 43.9303 9.54276 44.0755C9.70026 44.2558 9.87001 44.4255 10.0328 44.6005C10.5228 45.1325 11.0268 45.6435 11.5553 46.123C11.7163 46.27 11.8825 46.4065 12.0453 46.5465C12.6053 47.0295 13.181 47.488 13.7778 47.915C13.8548 47.9675 13.9248 48.0358 14.0018 48.09V48.069C18.1004 50.9533 22.9899 52.5013 28.0018 52.5013C33.0136 52.5013 37.9031 50.9533 42.0018 48.069V48.09C42.0788 48.0358 42.147 47.9675 42.2258 47.915C42.8208 47.4863 43.3983 47.0295 43.9583 46.5465C44.121 46.4065 44.2873 46.2683 44.4483 46.123C44.9768 45.6418 45.4808 45.1325 45.9708 44.6005C46.1335 44.4255 46.3015 44.2558 46.4608 44.0755C46.585 43.9303 46.7268 43.8043 46.8493 43.6555L46.8108 43.6275ZM28 14C29.5575 14 31.0801 14.4619 32.3751 15.3272C33.6702 16.1925 34.6795 17.4224 35.2756 18.8614C35.8716 20.3004 36.0276 21.8838 35.7237 23.4114C35.4198 24.939 34.6698 26.3422 33.5685 27.4435C32.4671 28.5448 31.0639 29.2949 29.5363 29.5987C28.0087 29.9026 26.4253 29.7466 24.9864 29.1506C23.5474 28.5546 22.3175 27.5452 21.4522 26.2502C20.5869 24.9551 20.125 23.4326 20.125 21.875C20.125 19.7865 20.9547 17.7834 22.4315 16.3066C23.9084 14.8297 25.9114 14 28 14ZM14.0123 43.6275C14.0426 41.3297 14.9764 39.1363 16.6116 37.5217C18.2469 35.9071 20.452 35.0012 22.75 35H33.25C35.548 35.0012 37.7532 35.9071 39.3884 37.5217C41.0236 39.1363 41.9574 41.3297 41.9878 43.6275C38.1497 47.0861 33.1665 49.0002 28 49.0002C22.8336 49.0002 17.8503 47.0861 14.0123 43.6275Z" fill="black"/>
</g>
<defs>
<clipPath id="clip0_913_19">
<rect width="56" height="56" fill="white"/>
</clipPath>
</defs>
</svg>
