<svg width="56" height="56" viewBox="0 0 56 56" fill="none" xmlns="http://www.w3.org/2000/svg">
<g clip-path="url(#clip0_913_19)">
<path d="M32.3166 21.3333L27.9999 25.6499L23.6833 21.3333L21.3333 23.6833L25.6499 27.9999L21.3333 32.3166L23.6833 34.6666L27.9999 30.3499L32.3166 34.6666L34.6666 32.3166L30.3499 27.9999L34.6666 23.6833L32.3166 21.3333ZM27.9999 11.3333C18.7833 11.3333 11.3333 18.7833 11.3333 27.9999C11.3333 37.2166 18.7833 44.6666 27.9999 44.6666C37.2166 44.6666 44.6666 37.2166 44.6666 27.9999C44.6666 18.7833 37.2166 11.3333 27.9999 11.3333ZM27.9999 41.3333C20.6499 41.3333 14.6666 35.3499 14.6666 27.9999C14.6666 20.6499 20.6499 14.6666 27.9999 14.6666C35.3499 14.6666 41.3333 20.6499 41.3333 27.9999C41.3333 35.3499 35.3499 41.3333 27.9999 41.3333Z" fill="#FF0000" fill-opacity="0.9"/>
</g>
<defs>
<clipPath id="clip0_913_19">
<rect width="56" height="56" fill="white"/>
</clipPath>
</defs>
</svg>
