<svg width="99" height="99" viewBox="0 0 99 99" fill="none" xmlns="http://www.w3.org/2000/svg">
<g clip-path="url(#clip0_911_2)">
<rect width="99" height="99" fill="white"/>
<path d="M84.054 15.1555C84.0199 15.1165 84.0053 15.0629 83.9711 15.0288C83.937 14.9947 83.8834 14.98 83.8444 14.941C74.7257 5.85124 62.3754 0.74707 49.5 0.74707C36.6247 0.74707 24.2744 5.85124 15.1556 14.941C15.1166 14.98 15.0679 14.9898 15.0289 15.0288C14.9899 15.0678 14.9801 15.1165 14.946 15.1555C8.1516 21.9826 3.53182 30.6694 1.66972 40.1196C-0.192382 49.5698 0.786663 59.3598 4.48329 68.254C8.17992 77.1483 14.4284 84.7482 22.4403 90.0946C30.4521 95.441 39.8681 98.2942 49.5 98.2942C59.1319 98.2942 68.548 95.441 76.5598 90.0946C84.5716 84.7482 90.8201 77.1483 94.5168 68.254C98.2134 59.3598 99.1924 49.5698 97.3303 40.1196C95.4682 30.6694 90.8485 21.9826 84.054 15.1555ZM49.5 88.4999C43.6611 88.4979 37.8974 87.1823 32.6358 84.6507C27.3743 82.1191 22.7496 78.4362 19.1044 73.8749H38.6775C40.0334 75.4076 41.6993 76.6348 43.565 77.4753C45.4308 78.3158 47.4537 78.7504 49.5 78.7504C51.5463 78.7504 53.5693 78.3158 55.435 77.4753C57.3008 76.6348 58.9667 75.4076 60.3225 73.8749H79.8957C76.2504 78.4362 71.6258 82.1191 66.3642 84.6507C61.1027 87.1823 55.339 88.4979 49.5 88.4999ZM44.625 64.1249C44.625 63.1607 44.9109 62.2182 45.4466 61.4165C45.9823 60.6148 46.7437 59.99 47.6344 59.621C48.5252 59.252 49.5054 59.1555 50.4511 59.3436C51.3968 59.5317 52.2654 59.996 52.9472 60.6778C53.629 61.3595 54.0933 62.2282 54.2814 63.1738C54.4695 64.1195 54.3729 65.0997 54.0039 65.9905C53.635 66.8813 53.0101 67.6426 52.2084 68.1783C51.4067 68.714 50.4642 68.9999 49.5 68.9999C48.2075 68.9986 46.9683 68.4846 46.0543 67.5706C45.1403 66.6567 44.6263 65.4174 44.625 64.1249ZM85.6238 64.1347L85.575 64.1249H64.125C64.1161 61.11 63.174 58.1719 61.4283 55.7138C59.6825 53.2558 57.2187 51.3985 54.375 50.3969V34.8749C54.375 33.582 53.8614 32.342 52.9472 31.4278C52.0329 30.5135 50.793 29.9999 49.5 29.9999C48.2071 29.9999 46.9671 30.5135 46.0529 31.4278C45.1386 32.342 44.625 33.582 44.625 34.8749V50.3969C41.7814 51.3985 39.3175 53.2558 37.5718 55.7138C35.826 58.1719 34.884 61.11 34.875 64.1249H13.425L13.3763 64.1347C12.1088 61.006 11.2565 57.7249 10.8413 54.3749H15.375C16.668 54.3749 17.9079 53.8613 18.8222 52.947C19.7364 52.0328 20.25 50.7928 20.25 49.4999C20.25 48.207 19.7364 46.967 18.8222 46.0528C17.9079 45.1385 16.668 44.6249 15.375 44.6249H10.8413C11.7121 37.6953 14.4391 31.1297 18.7339 25.6222L21.9222 28.8153C22.3719 29.2809 22.9098 29.6523 23.5046 29.9078C24.0993 30.1633 24.739 30.2977 25.3863 30.3034C26.0336 30.309 26.6756 30.1857 27.2747 29.9405C27.8738 29.6954 28.4181 29.3334 28.8758 28.8757C29.3336 28.418 29.6955 27.8737 29.9407 27.2746C30.1858 26.6754 30.3091 26.0335 30.3035 25.3862C30.2979 24.7389 30.1634 24.0992 29.9079 23.5044C29.6524 22.9097 29.281 22.3717 28.8154 21.922L25.6272 18.7289C31.1339 14.4368 37.6976 11.7116 44.625 10.8412V15.3749C44.625 16.6678 45.1386 17.9078 46.0529 18.822C46.9671 19.7363 48.2071 20.2499 49.5 20.2499C50.793 20.2499 52.0329 19.7363 52.9472 18.822C53.8614 17.9078 54.375 16.6678 54.375 15.3749V10.8412C61.3024 11.7116 67.8661 14.4368 73.3729 18.7289L70.1847 21.922C69.719 22.3717 69.3476 22.9097 69.0922 23.5044C68.8367 24.0992 68.7022 24.7389 68.6966 25.3862C68.6909 26.0335 68.8143 26.6754 69.0594 27.2746C69.3045 27.8737 69.6665 28.418 70.1242 28.8757C70.582 29.3334 71.1263 29.6954 71.7254 29.9405C72.3245 30.1857 72.9664 30.309 73.6137 30.3034C74.261 30.2977 74.9007 30.1633 75.4955 29.9078C76.0903 29.6523 76.6282 29.2809 77.0779 28.8153L80.2662 25.6222C84.5627 31.1291 87.2914 37.6948 88.1637 44.6249H83.625C82.3321 44.6249 81.0921 45.1385 80.1779 46.0528C79.2636 46.967 78.75 48.207 78.75 49.4999C78.75 50.7928 79.2636 52.0328 80.1779 52.947C81.0921 53.8613 82.3321 54.3749 83.625 54.3749H88.1588C87.7435 57.7249 86.8913 61.006 85.6238 64.1347Z" fill="black"/>
</g>
<defs>
<clipPath id="clip0_911_2">
<rect width="99" height="99" fill="white"/>
</clipPath>
</defs>
</svg>
