<svg width="56" height="56" viewBox="0 0 56 56" fill="none" xmlns="http://www.w3.org/2000/svg">
<g clip-path="url(#clip0_913_19)">
<path d="M26.3334 41.3334V37.7917L35.1667 28.9584L38.7084 32.5001L29.8751 41.3334H26.3334ZM39.8751 31.3334L36.3334 27.7917L38.7084 25.4167L42.2501 28.9584L39.8751 31.3334ZM18.0001 21.3334C17.0834 21.3334 16.299 21.0067 15.6467 20.3534C14.9934 19.7012 14.6667 18.9167 14.6667 18.0001C14.6667 17.0834 14.9934 16.299 15.6467 15.6467C16.299 14.9934 17.0834 14.6667 18.0001 14.6667C18.9167 14.6667 19.7012 14.9934 20.3534 15.6467C21.0067 16.299 21.3334 17.0834 21.3334 18.0001C21.3334 18.9167 21.0067 19.7012 20.3534 20.3534C19.7012 21.0067 18.9167 21.3334 18.0001 21.3334ZM18.0001 41.3334C17.0834 41.3334 16.299 41.0073 15.6467 40.3551C14.9934 39.7017 14.6667 38.9167 14.6667 38.0001C14.6667 37.0834 14.9934 36.2984 15.6467 35.6451C16.299 34.9929 17.0834 34.6667 18.0001 34.6667C18.9167 34.6667 19.7012 34.9929 20.3534 35.6451C21.0067 36.2984 21.3334 37.0834 21.3334 38.0001C21.3334 38.9167 21.0067 39.7017 20.3534 40.3551C19.7012 41.0073 18.9167 41.3334 18.0001 41.3334ZM18.0001 31.3334C17.0834 31.3334 16.299 31.0067 15.6467 30.3534C14.9934 29.7012 14.6667 28.9167 14.6667 28.0001C14.6667 27.0834 14.9934 26.2984 15.6467 25.6451C16.299 24.9929 17.0834 24.6667 18.0001 24.6667C18.9167 24.6667 19.7012 24.9929 20.3534 25.6451C21.0067 26.2984 21.3334 27.0834 21.3334 28.0001C21.3334 28.9167 21.0067 29.7012 20.3534 30.3534C19.7012 31.0067 18.9167 31.3334 18.0001 31.3334ZM28.0001 31.3334C27.0834 31.3334 26.299 31.0067 25.6467 30.3534C24.9934 29.7012 24.6667 28.9167 24.6667 28.0001C24.6667 27.0834 24.9934 26.2984 25.6467 25.6451C26.299 24.9929 27.0834 24.6667 28.0001 24.6667C28.9167 24.6667 29.7017 24.9929 30.3551 25.6451C31.0073 26.2984 31.3334 27.0834 31.3334 28.0001L28.0001 31.3334ZM38.0001 21.3334C37.0834 21.3334 36.2984 21.0067 35.6451 20.3534C34.9929 19.7012 34.6667 18.9167 34.6667 18.0001C34.6667 17.0834 34.9929 16.299 35.6451 15.6467C36.2984 14.9934 37.0834 14.6667 38.0001 14.6667C38.9167 14.6667 39.7017 14.9934 40.3551 15.6467C41.0073 16.299 41.3334 17.0834 41.3334 18.0001C41.3334 18.9167 41.0073 19.7012 40.3551 20.3534C39.7017 21.0067 38.9167 21.3334 38.0001 21.3334ZM28.0001 21.3334C27.0834 21.3334 26.299 21.0067 25.6467 20.3534C24.9934 19.7012 24.6667 18.9167 24.6667 18.0001C24.6667 17.0834 24.9934 16.299 25.6467 15.6467C26.299 14.9934 27.0834 14.6667 28.0001 14.6667C28.9167 14.6667 29.7017 14.9934 30.3551 15.6467C31.0073 16.299 31.3334 17.0834 31.3334 18.0001C31.3334 18.9167 31.0073 19.7012 30.3551 20.3534C29.7017 21.0067 28.9167 21.3334 28.0001 21.3334Z" fill="black"/>
</g>
<defs>
<clipPath id="clip0_913_19">
<rect width="56" height="56" fill="white"/>
</clipPath>
</defs>
</svg>
