<svg width="1920" height="1080" viewBox="0 0 1920 1080" xmlns="http://www.w3.org/2000/svg"><rect width="1920" height="1080" fill="#ffffff"/><path d="M 0,1080 C 0,1080 0,270 0,270 C 115.9797496318115,227.70618556701032 231.959499263623,185.41237113402062 317,169 C 402.040500736377,152.58762886597938 456.1417525773196,162.05670103092783 533,189 C 609.8582474226804,215.94329896907217 709.4734904270987,260.36082474226805 824,274 C 938.5265095729013,287.63917525773195 1067.964285714286,270.5 1147,257 C 1226.035714285714,243.50000000000003 1254.6693667157583,233.63917525773198 1340,231 C 1425.3306332842417,228.36082474226802 1567.3582474226803,232.94329896907215 1681,255 C 1794.6417525773197,277.05670103092785 1879.89764359352,316.5876288659794 1915,322 C 1950.10235640648,327.4123711340206 1935.05117820324,298.70618556701027 1920,270 C 1920,270 1920,1080 1920,1080 Z" fill="#18b0ec" opacity="0.15"/><path d="M 0,1080 C 0,1080 0,540 0,540 C 80.62720913107509,516.1494845360825 161.25441826215018,492.29896907216494 248,513 C 334.7455817378498,533.7010309278351 427.60953608247416,598.9536082474227 518,632 C 608.3904639175258,665.0463917525773 696.3074374079529,665.8865979381443 796,640 C 895.6925625920471,614.1134020618557 1007.1607142857144,561.5 1091,552 C 1174.8392857142856,542.5 1231.0497054491902,576.1134020618557 1327,558 C 1422.9502945508098,539.8865979381443 1558.6404639175257,470.0463917525774 1667,459 C 1775.3595360824743,447.9536082474226 1856.388438880707,495.70103092783506 1894,519 C 1931.611561119293,542.2989690721649 1925.8057805596463,541.1494845360825 1920,540 C 1920,540 1920,1080 1920,1080 Z" fill="#18b0ec" opacity="0.3"/><path d="M 0,1080 C 0,1080 0,810 0,810 C 112.18685567010309,846.235088365243 224.37371134020617,882.4701767304861 310,849 C 395.62628865979383,815.5298232695139 454.6920103092783,712.354381443299 546,717 C 637.3079896907217,721.645618556701 760.8582474226804,834.1122974963182 867,852 C 973.1417525773196,869.8877025036818 1061.875,793.1964285714286 1144,754 C 1226.125,714.8035714285714 1301.6417525773197,713.1019882179677 1374,742 C 1446.3582474226803,770.8980117820323 1515.5579896907213,830.3956185567009 1617,868 C 1718.4420103092787,905.6043814432991 1852.126288659794,921.3155375552284 1908,908 C 1963.873711340206,894.6844624447716 1941.936855670103,852.3422312223859 1920,810 C 1920,810 1920,1080 1920,1080 Z" fill="#18b0ec" opacity="0.44999999999999996"/></svg>